PathFileType   4   (X/Y/Z)
DataRate	CameraRate	NumFrames	NumMarkers	Units	OrigDataRate	OrigDataStartFrame	OrigNumFrames
120.0	120.0	7	37	mm	120.0	42	96
Frame#	Time	midhip	hip_r	hip_l	knee_r	knee_l	ankle_r	ankle_l	midasis	asis_r	asis_l	psis_r	psis_l	epicondLat_r	epicondLat_l	epicondMed_r	epicondMed_l	malleolusLat_r	malleolusLat_l	malleolusMedv_r	malleolusMedv_l	neck	subclavicle_r	subclavicle_l	sternalnotch	xyphoidprocess	thighwand_r	thighwand_l	upperleg1_r	upperleg1_l	upperleg2_r	upperleg2_l	shankwand_r	shankwand_l	lowerleg1_r	lowerleg1_l	toe_r	toe_l
 	 	X1	Y1	Z1	X2	Y2	Z2	X3	Y3	Z3	X4	Y4	Z4	X5	Y5	Z5	X6	Y6	Z6	X7	Y7	Z7	X8	Y8	Z8	X9	Y9	Z9	X10	Y10	Z10	X11	Y11	Z11	X12	Y12	Z12	X13	Y13	Z13	X14	Y14	Z14	X15	Y15	Z15	X16	Y16	Z16	X17	Y17	Z17	X18	Y18	Z18	X19	Y19	Z19	X20	Y20	Z20	X21	Y21	Z21	X22	Y22	Z22	X23	Y23	Z23	X24	Y24	Z24	X25	Y25	Z25	X26	Y26	Z26	X27	Y27	Z27	X28	Y28	Z28	X29	Y29	Z29	X30	Y30	Z30	X31	Y31	Z31	X32	Y32	Z32	X33	Y33	Z33	X34	Y34	Z34	X35	Y35	Z35	X36	Y36	Z36	X37	Y37	Z37

	42	0.43333	1016.165	581.841	-283.812	1018.460	594.345	-227.079	1031.063	594.332	-343.846	883.809	325.410	-224.173	1192.635	334.101	-346.486	705.059	90.522	-218.540	1283.315	62.679	-369.706	1070.078	655.350	-280.578	1060.611	655.359	-192.859	1079.545	655.341	-368.298	929.667	678.752	-255.825	940.903	672.634	-339.636	875.480	330.067	-179.173	1196.183	336.789	-394.279	878.231	330.472	-263.004	1193.158	326.532	-302.766	698.280	96.454	-186.274	1275.264	62.683	-401.193	695.204	99.321	-246.514	1284.389	56.701	-336.716	1011.479	987.987	-299.403	1107.977	924.713	-256.812	1103.672	917.743	-348.423	1091.390	935.292	-295.083	1136.667	799.956	-292.255	1027.995	344.449	-224.191	1214.582	440.808	-439.795	985.672	432.196	-185.590	1168.838	478.355	-357.719	932.958	363.440	-186.539	1211.239	406.754	-341.728	771.029	165.446	-115.444	1334.773	198.045	-332.129	790.737	205.999	-180.179	1264.609	225.571	-352.872	765.283	41.638	-226.531	1368.351	65.927	-369.696
	43	0.44167	1030.599	580.498	-285.255	1033.032	592.839	-228.526	1045.323	593.317	-345.325	899.415	323.040	-224.678	1208.410	334.816	-346.512	711.256	95.163	-217.495	1288.706	60.753	-369.673	1084.367	654.174	-281.920	1075.129	653.815	-194.132	1093.605	654.534	-369.708	944.134	677.030	-256.497	954.712	671.530	-340.432	891.107	327.796	-179.685	1211.604	337.051	-394.354	894.097	328.230	-264.292	1210.495	327.606	-302.209	704.936	101.400	-185.193	1280.562	61.025	-401.135	701.124	104.544	-245.202	1290.992	55.061	-336.663	1025.564	986.792	-302.330	1122.096	923.969	-259.445	1117.765	916.649	-351.189	1105.463	934.304	-297.679	1151.033	799.140	-294.531	1044.069	342.444	-224.886	1229.219	440.291	-441.050	1001.784	430.084	-186.928	1184.672	478.533	-358.894	948.573	361.093	-187.795	1227.596	407.325	-342.632	780.911	167.608	-114.979	1345.987	193.658	-332.288	801.475	207.288	-179.913	1277.970	225.046	-352.130	767.579	41.948	-226.327	1374.187	59.212	-370.935
	44	0.45000	1045.122	579.562	-286.635	1047.567	591.690	-230.005	1059.516	592.777	-346.835	916.087	320.475	-225.104	1223.928	335.949	-346.479	718.638	100.084	-216.586	1293.067	59.223	-369.539	1098.562	653.440	-283.246	1089.576	652.623	-195.388	1107.548	654.257	-371.104	958.531	675.643	-256.931	968.406	670.793	-340.992	907.841	325.286	-180.106	1226.569	337.573	-394.378	911.987	325.008	-266.184	1227.526	329.630	-302.122	712.738	106.620	-184.264	1284.826	59.783	-400.971	708.442	110.188	-243.943	1295.123	54.268	-336.360	1040.119	986.449	-305.108	1136.253	923.680	-261.855	1131.906	916.018	-353.718	1119.628	933.698	-300.202	1164.840	798.634	-296.545	1061.328	340.832	-225.691	1243.254	439.718	-442.524	1018.261	428.342	-188.603	1200.315	479.592	-360.648	965.620	358.618	-189.510	1243.627	408.688	-344.243	791.796	169.941	-114.525	1356.277	189.440	-332.438	813.574	208.671	-179.733	1289.766	224.920	-351.381	770.228	42.232	-226.217	1378.862	53.240	-372.039
	45	0.45833	1059.687	579.073	-287.993	1062.003	590.909	-231.527	1073.614	592.756	-348.383	933.831	317.708	-225.391	1238.909	337.291	-346.461	727.385	105.183	-215.898	1296.567	58.042	-369.353	1112.618	653.173	-284.533	1103.881	651.783	-196.597	1121.355	654.562	-372.469	972.803	674.630	-257.142	981.985	670.438	-341.319	925.643	322.561	-180.386	1240.907	338.223	-394.410	931.822	320.845	-268.593	1242.717	332.567	-301.524	721.826	112.027	-183.579	1288.214	58.891	-400.750	717.292	116.063	-242.860	1297.951	53.379	-335.982	1054.493	986.550	-307.748	1150.711	923.578	-264.079	1146.451	915.784	-356.000	1133.787	933.461	-302.633	1179.157	798.439	-298.589	1079.741	339.638	-226.430	1256.721	439.135	-444.126	1035.016	426.684	-190.361	1215.887	481.366	-363.005	984.043	355.902	-191.539	1258.755	410.487	-345.803	803.704	172.441	-114.099	1365.595	185.396	-332.676	827.116	209.662	-179.839	1300.447	224.255	-351.067	773.356	42.551	-226.220	1382.491	48.270	-372.909
	46	0.46667	1074.229	579.052	-289.387	1076.272	590.503	-233.095	1087.582	593.275	-349.961	952.633	314.762	-225.485	1253.058	338.602	-346.528	737.633	110.371	-215.499	1299.343	57.132	-369.169	1126.499	653.370	-285.756	1117.981	651.282	-197.736	1135.017	655.457	-373.777	986.907	674.031	-257.192	995.464	670.487	-341.468	944.441	319.677	-180.488	1254.419	338.839	-394.508	953.002	316.155	-270.798	1256.402	335.948	-300.281	732.303	117.555	-183.216	1290.860	58.259	-400.522	727.929	121.910	-242.345	1300.169	52.176	-335.648	1068.551	986.673	-310.134	1165.042	923.676	-266.396	1160.901	915.838	-358.236	1147.861	933.585	-304.950	1193.699	798.562	-300.771	1099.210	338.883	-226.886	1269.617	438.549	-445.776	1052.678	424.933	-192.088	1231.284	483.433	-365.592	1003.645	352.861	-193.439	1273.163	412.258	-346.994	816.619	175.128	-113.732	1373.917	181.514	-333.064	841.968	210.219	-180.117	1309.624	222.609	-351.341	777.241	43.044	-226.316	1385.215	44.403	-373.549
	47	0.47500	1088.689	579.498	-290.876	1090.304	590.473	-234.694	1101.391	594.323	-351.551	972.450	311.702	-225.351	1266.134	339.694	-346.727	749.499	115.583	-215.447	1301.497	56.417	-369.027	1140.179	654.007	-286.887	1131.820	651.104	-198.781	1148.538	656.910	-374.994	1000.809	673.873	-257.181	1008.859	670.968	-341.527	964.126	316.728	-180.391	1266.925	339.296	-394.719	975.266	310.940	-272.025	1269.196	339.134	-298.829	744.263	123.163	-183.238	1292.869	57.805	-400.331	741.139	127.172	-242.338	1302.039	51.309	-335.423	1082.317	987.034	-312.349	1178.905	924.072	-268.746	1174.986	916.130	-360.442	1161.818	934.062	-307.135	1207.793	798.958	-302.833	1119.568	338.597	-226.830	1281.908	437.937	-447.418	1071.410	423.091	-193.622	1246.006	485.272	-368.065	1024.440	349.609	-194.689	1286.886	413.645	-347.863	830.517	178.042	-113.467	1381.240	177.790	-333.610	858.210	210.869	-180.105	1317.076	220.358	-352.004	782.290	43.898	-226.439	1387.179	41.597	-374.020
	48	0.48333	1102.926	580.391	-292.450	1104.038	590.818	-236.299	1115.028	595.859	-353.120	993.207	308.655	-224.978	1278.003	340.467	-347.075	763.028	120.800	-215.772	1303.114	55.842	-368.948	1153.642	655.046	-287.897	1145.347	651.241	-199.712	1161.938	658.852	-376.082	1014.482	674.163	-257.215	1022.182	671.902	-341.604	984.557	313.854	-180.099	1278.313	339.529	-395.065	998.303	305.478	-271.936	1280.941	341.353	-298.206	757.747	128.843	-183.683	1294.343	57.470	-400.199	757.207	131.258	-242.586	1303.606	50.963	-335.370	1095.914	987.991	-314.572	1192.383	924.913	-270.935	1188.615	916.652	-362.401	1175.599	934.901	-309.165	1221.095	799.626	-304.398	1140.597	338.839	-226.055	1293.546	437.270	-449.016	1090.951	421.446	-194.770	1259.342	486.441	-370.404	1046.073	346.518	-194.990	1299.433	414.415	-348.907	845.369	181.234	-113.355	1387.584	174.242	-334.272	875.781	211.807	-179.570	1323.860	218.438	-352.707	789.024	45.315	-226.473	1388.542	39.695	-374.391
